<svg width="138" height="52" viewBox="0 0 138 52" fill="none" xmlns="http://www.w3.org/2000/svg">
<g clip-path="url(#clip0_206_372)">
<path d="M7.32647 22.0299L0.0326843 10.0796H4.94149L8.72519 17.2916L12.5089 10.0796H17.4177L10.1076 22.0299H7.32851H7.32647Z" fill="white"/>
<path d="M25.6018 22.4053C24.544 22.4053 23.5476 22.2412 22.6124 21.915C21.6772 21.5889 20.8522 21.1356 20.1375 20.5551C19.4229 19.9746 18.8634 19.3018 18.457 18.5367C18.0507 17.7696 17.8465 16.947 17.8465 16.0691C17.8465 15.1912 18.0384 14.4158 18.4223 13.6528C18.8062 12.8897 19.3494 12.2128 20.0497 11.6221C20.7501 11.0314 21.573 10.5637 22.5184 10.2211C23.4639 9.87858 24.4869 9.70833 25.5895 9.70833C26.4839 9.70833 27.3456 9.81705 28.1726 10.0345C28.9995 10.2519 29.6673 10.5329 30.1736 10.8755L28.7504 13.2918C28.0725 12.8631 27.2312 12.6498 26.2286 12.6498C25.369 12.6498 24.6421 12.8139 24.0458 13.14C23.4496 13.4661 22.9942 13.8907 22.6838 14.4117C22.3714 14.9327 22.2162 15.4825 22.2162 16.0568C22.2162 16.6865 22.3837 17.2609 22.7186 17.7778C23.0534 18.2947 23.5251 18.7049 24.1357 19.0085C24.7462 19.3121 25.4527 19.4638 26.2572 19.4638C26.7534 19.4638 27.221 19.4064 27.6539 19.2895C28.0888 19.1726 28.4543 19.0167 28.7525 18.8218L30.1757 21.2381C29.6611 21.5725 28.9955 21.8514 28.1828 22.073C27.3701 22.2945 26.5104 22.4053 25.6058 22.4053H25.6018Z" fill="white"/>
<path d="M32.9875 22.0299V10.0796H37.151V11.4108C37.837 10.8201 38.5211 10.3873 39.199 10.1145C39.8769 9.84166 40.61 9.70628 41.3961 9.70628C42.462 9.70628 43.4258 9.9114 44.2855 10.3237C45.1451 10.736 45.7598 11.2878 46.1293 11.9811C46.8073 11.2262 47.5342 10.658 48.3122 10.2765C49.0901 9.89499 49.9804 9.70423 50.983 9.70423C51.9856 9.70423 52.8759 9.88269 53.6539 10.2416C54.4318 10.6006 55.0444 11.1073 55.4916 11.7657C55.9388 12.4241 56.1634 13.1995 56.1634 14.0938V22.0299H51.9999V15.0743C51.9999 14.2969 51.7651 13.6836 51.2954 13.2364C50.8258 12.7892 50.1969 12.5657 49.4107 12.5657C48.8676 12.5657 48.3918 12.6641 47.9793 12.8569C47.5689 13.0518 47.2442 13.3123 47.0094 13.6384C46.7746 13.9646 46.6562 14.3276 46.6562 14.7235V22.0299H42.4927V15.0045C42.4927 14.2661 42.264 13.6733 41.8086 13.2302C41.3512 12.7872 40.7223 12.5657 39.9178 12.5657C39.3848 12.5657 38.907 12.6641 38.4864 12.8569C38.0657 13.0518 37.739 13.3164 37.5042 13.6507C37.2694 13.9851 37.151 14.3543 37.151 14.7584V22.0299H32.9875Z" fill="white"/>
<path d="M48.5082 42.2937C46.9849 42.2937 45.8006 41.9163 44.9552 41.1615C44.1098 40.4066 43.6872 39.3523 43.6872 37.9964V32.7351H41.6411V30.0296H43.6872V27.5661H48.2713V30.0296H51.6303V32.7351H48.2713V37.74C48.2713 38.1893 48.3877 38.5298 48.6225 38.7615C48.8573 38.9933 49.1881 39.1103 49.6149 39.1103C50.0927 39.1103 50.5501 38.9872 50.9891 38.739L52.1387 41.5963C51.6221 41.8137 51.0422 41.984 50.399 42.1071C49.7578 42.2301 49.1269 42.2937 48.5102 42.2937H48.5082Z" fill="white"/>
<path d="M6.66487 41.9224L0 30.0316H4.34932L7.81856 37.1739L11.0897 30.0316H13.6789L16.9501 37.1739L20.4193 30.0316H24.7687L18.1038 41.9224H15.5514L12.3802 35.0591L9.20912 41.9224H6.66896H6.66487Z" fill="white"/>
<path d="M31.0966 42.2937C29.9327 42.2937 28.8729 42.0209 27.9194 41.4753C26.9658 40.9297 26.2103 40.1789 25.6528 39.2231C25.0954 38.2672 24.8156 37.178 24.8156 35.9535C24.8156 34.7289 25.0831 33.691 25.6201 32.7433C26.1572 31.7957 26.8984 31.0449 27.8438 30.4911C28.7892 29.9373 29.8735 29.6604 31.0966 29.6604C31.9971 29.6604 32.8363 29.8204 33.6184 30.1424C34.3984 30.4644 35.0375 30.9116 35.5317 31.4839V30.0316H39.3358V41.9224H35.5317V40.3553C34.9538 40.983 34.2881 41.463 33.5367 41.7953C32.7853 42.1276 31.9705 42.2937 31.0966 42.2937ZM32.2237 39.262C32.8853 39.262 33.4714 39.1205 33.9839 38.8374C34.4964 38.5544 34.8966 38.1667 35.1866 37.6703C35.4765 37.176 35.6195 36.6098 35.6195 35.974C35.6195 35.3381 35.4725 34.7638 35.1805 34.2735C34.8864 33.7812 34.4862 33.3956 33.9778 33.1125C33.4693 32.8295 32.8853 32.6879 32.2237 32.6879C31.5622 32.6879 30.9884 32.8295 30.4779 33.1125C29.9654 33.3956 29.5611 33.7833 29.2629 34.2797C28.9648 34.7761 28.8178 35.3401 28.8178 35.976C28.8178 36.6119 28.9648 37.176 29.2568 37.6724C29.5509 38.1687 29.9531 38.5564 30.4656 38.8395C30.9782 39.1226 31.5642 39.2641 32.2258 39.2641L32.2237 39.262Z" fill="white"/>
<path d="M60.768 42.2937C59.7041 42.2937 58.7015 42.1317 57.7602 41.8055C56.8189 41.4794 55.9878 41.0302 55.269 40.4517C54.5503 39.8753 53.9867 39.2046 53.5763 38.4436C53.1679 37.6806 52.9616 36.8621 52.9616 35.9883C52.9616 35.1145 53.1556 34.3433 53.5415 33.5843C53.9275 32.8254 54.4747 32.1526 55.1792 31.5639C55.8836 30.9752 56.7127 30.5116 57.6622 30.1711C58.6137 29.8306 59.6428 29.6604 60.7537 29.6604C61.6542 29.6604 62.5199 29.7691 63.353 29.9845C64.1862 30.2019 64.8559 30.4808 65.3664 30.8213L63.933 33.2254C63.2509 32.7987 62.4056 32.5874 61.3948 32.5874C60.5311 32.5874 59.798 32.7495 59.1977 33.0756C58.5974 33.4018 58.14 33.8223 57.8255 34.3412C57.5111 34.8602 57.3538 35.4058 57.3538 35.9781C57.3538 36.6057 57.5213 37.176 57.8582 37.6908C58.1951 38.2057 58.6709 38.6139 59.2835 38.9154C59.896 39.2169 60.6087 39.3687 61.4193 39.3687C61.9196 39.3687 62.3872 39.3113 62.8242 39.1943C63.2612 39.0774 63.6287 38.9236 63.9289 38.7308L65.3623 41.1348C64.8437 41.4671 64.1759 41.744 63.3571 41.9655C62.5383 42.1871 61.6746 42.2958 60.7639 42.2958L60.768 42.2937Z" fill="white"/>
<path d="M67.6084 41.9224V24.8318H71.4126V31.3547C71.9006 30.8439 72.5091 30.4337 73.2401 30.1239C73.9711 29.8142 74.7777 29.6604 75.6618 29.6604C76.6358 29.6604 77.4934 29.8593 78.2326 30.2593C78.9718 30.6573 79.5517 31.2111 79.9723 31.9208C80.393 32.6285 80.6033 33.4551 80.6033 34.4007V41.9245H76.7992V35.1535C76.7992 34.3022 76.5623 33.6376 76.0865 33.1618C75.6108 32.6859 74.9614 32.4479 74.1344 32.4479C73.5729 32.4479 73.0869 32.5546 72.6785 32.7679C72.2702 32.9813 71.9557 33.2705 71.7372 33.6397C71.5187 34.0069 71.4085 34.4233 71.4085 34.8889V41.9266H67.6043L67.6084 41.9224Z" fill="white"/>
<path d="M133.78 0H90.6033C88.3941 0 86.6033 1.79086 86.6033 4V48C86.6033 50.2091 88.3941 52 90.6033 52H133.78C135.989 52 137.78 50.2091 137.78 48V4C137.78 1.79086 135.989 0 133.78 0Z" fill="white"/>
<path d="M122.115 30.6655C120.957 28.5158 118.899 25.9477 115.395 24.7662C110.521 23.1211 106.794 25.0411 106.081 25.4349L105.269 25.9169C107.376 16.6045 111.111 9.35963 112.362 9.40476C114.606 9.4868 118.141 25.0534 121.002 25.8964C122.19 26.2472 121.192 21.9109 120.796 20.8361C118.419 14.3912 117.953 5.11364 112.454 5.25723C108.538 5.35979 105.001 10.3237 103.635 15.6568C102 20.6535 100.736 27.2605 100.756 29.7629C100.762 30.6039 101.066 31.9782 102 32.409C103.302 33.01 103.792 31.8018 106.296 29.9168C107.582 29.2953 108.803 28.044 110.523 27.8122C112.332 27.5681 114.892 28.4276 118.392 32.8274C119.021 33.6192 118.809 34.7904 117.937 35.2991C117.569 35.5145 117.106 35.7176 116.518 35.894C116.528 35.7504 116.536 35.6047 116.536 35.4591C116.536 32.1649 113.839 29.5024 110.541 29.5804C107.435 29.6542 104.903 32.1977 104.83 35.3176C104.752 38.6303 107.402 41.3399 110.682 41.3399C110.798 41.3399 110.913 41.3358 111.027 41.3297C114.698 41.4876 118.37 39.8548 121.218 36.9503C122.856 35.2807 123.227 32.7269 122.117 30.6655H122.115ZM110.964 37.7011C109.792 37.7011 108.842 36.7473 108.842 35.5699C108.842 34.3925 109.792 33.4387 110.964 33.4387C112.136 33.4387 113.085 34.3925 113.085 35.5699C113.085 36.7473 112.136 37.7011 110.964 37.7011Z" fill="#243D56"/>
<path d="M104.482 39.459C103.833 37.2929 103.092 37.8631 102.945 36.3657C102.792 34.8048 103.762 33.9248 103.294 33.4592C102.882 33.0489 101.691 33.293 101.13 33.9843C100.298 35.0078 101.036 36.7821 101.573 38.0785C102.592 40.5338 105.969 42.3799 106.467 42.1153C106.859 41.9081 104.578 39.783 104.482 39.461V39.459Z" fill="#243D56"/>
<path d="M117.394 42.1399C114.557 43.0609 115.17 43.4485 112.893 43.6742C110.52 43.9101 108.084 42.5973 107.815 43.2434C107.578 43.8137 109.216 45.4362 110.921 46.191C113.447 47.3089 115.556 46.2751 117.097 45.5182C120.017 44.0865 121.682 41.5061 120.734 40.8292C119.989 40.2959 117.818 42.0004 117.394 42.1378V42.1399Z" fill="#243D56"/>
<path d="M124.361 35.935C124.52 33.33 124.72 33.4941 124.416 31.527C124.099 29.4758 121.588 27.8963 122.074 27.5148C122.5 27.1784 124.222 28.163 125.228 29.4142C126.717 31.2665 126.307 33.291 126.004 34.7679C125.435 37.5677 123.626 39.5861 122.85 38.9544C122.239 38.4559 124.338 36.3247 124.361 35.937V35.935Z" fill="#243D56"/>
</g>
<defs>
<clipPath id="clip0_206_372">
<rect width="137.78" height="52" fill="white"/>
</clipPath>
</defs>
</svg>
